<?xml version="1.0" encoding="UTF-8" standalone="no" ?>
<!DOCTYPE svg PUBLIC "-//W3C//DTD SVG 1.1//EN" "http://www.w3.org/Graphics/SVG/1.1/DTD/svg11.dtd">
<svg xmlns="http://www.w3.org/2000/svg" xmlns:xlink="http://www.w3.org/1999/xlink" version="1.1" width="55" height="56" viewBox="0 0 55 56" xml:space="preserve">
<desc>Created with Fabric.js 3.6.3</desc>
<defs>
</defs>
<g transform="matrix(1 0 0 1 28 28.5)"  >
<g style=""   >
		<g transform="matrix(1 0 0 1 0 -0.16)"  >
<path style="stroke: none; stroke-width: 1; stroke-dasharray: none; stroke-linecap: butt; stroke-dashoffset: 0; stroke-linejoin: miter; stroke-miterlimit: 4; fill: rgb(238,45,58); fill-rule: nonzero; opacity: 1;"  transform=" translate(-28, -28.34)" d="M 56 0.3396 H 0 V 56.3396 H 56 V 0.3396 Z" stroke-linecap="round" />
</g>
		<g transform="matrix(1 0 0 1 0.01 -0.16)"  >
<path style="stroke: none; stroke-width: 1; stroke-dasharray: none; stroke-linecap: butt; stroke-dashoffset: 0; stroke-linejoin: miter; stroke-miterlimit: 4; fill: rgb(255,255,255); fill-rule: nonzero; opacity: 1;"  transform=" translate(-28.01, -28.34)" d="M 47.408 11.4888 C 47.408 11.4888 47.408 11.4888 18.2606 11.4888 C 7.08804 11.4888 6.08552 22.3167 12.8055 26.0214 C 17.9395 28.8488 24.3384 30.4191 19.2436 45.1867 L 47.408 11.4888 Z M 37.6178 16.0784 L 24.9297 31.2376 C 24.7769 30.7887 24.6004 30.3481 24.401 29.9179 C 22.5017 25.9 19.0713 24.1299 16.3183 22.7083 C 15.8601 22.4656 15.4215 22.2423 15.0103 22.0152 C 13.4125 21.1341 12.9778 19.5755 13.2559 18.4907 C 13.4223 17.8802 13.8105 17.3538 14.3445 17.0144 C 15.2413 16.3956 16.5885 16.0706 18.2606 16.0706 H 37.61" stroke-linecap="round" />
</g>
</g>
</g>
</svg>