<svg width="22" height="22" viewBox="0 0 22 22" fill="none" xmlns="http://www.w3.org/2000/svg">
<path d="M8.81819 0.0908203C10.4512 0.0907973 12.0515 0.548947 13.437 1.41318C14.8226 2.27742 15.9379 3.51307 16.6561 4.97965C17.3744 6.44623 17.6667 8.08491 17.5 9.70938C17.3332 11.3339 16.714 12.8789 15.7127 14.169L21.6669 20.1243L20.1244 21.6668L14.1702 15.7126C13.073 16.5642 11.7884 17.1415 10.4231 17.3968C9.05791 17.652 7.65148 17.5777 6.32074 17.18C4.99001 16.7824 3.77339 16.0729 2.77201 15.1105C1.77062 14.1481 1.01339 12.9606 0.563252 11.6466C0.113109 10.3327 -0.0169463 8.93036 0.183894 7.55608C0.384733 6.1818 0.910668 4.8753 1.71799 3.74515C2.52531 2.61501 3.5907 1.69387 4.82562 1.05828C6.06053 0.422695 7.42931 0.0910192 8.81819 0.0908203ZM8.81819 2.27264C7.08223 2.27264 5.41736 2.96225 4.18985 4.18976C2.96234 5.41727 2.27273 7.08213 2.27273 8.81809C2.27273 10.5541 2.96234 12.2189 4.18985 13.4464C5.41736 14.6739 7.08223 15.3635 8.81819 15.3635C10.5542 15.3635 12.219 14.6739 13.4465 13.4464C14.674 12.2189 15.3636 10.5541 15.3636 8.81809C15.3636 7.08213 14.674 5.41727 13.4465 4.18976C12.219 2.96225 10.5542 2.27264 8.81819 2.27264Z" fill="black"/>
</svg>
