<svg width="18" height="23" viewBox="0 0 18 23" fill="none" xmlns="http://www.w3.org/2000/svg">
<path fill-rule="evenodd" clip-rule="evenodd" d="M14.4545 5.45455C14.4545 4.00791 13.8799 2.62052 12.8569 1.5976C11.834 0.574674 10.4466 0 8.99998 0C7.55334 0 6.16596 0.574674 5.14303 1.5976C4.12011 2.62052 3.54543 4.00791 3.54543 5.45455H0.272705V22.9091H17.7273V5.45455H14.4545ZM8.99998 2.18182C9.86796 2.18182 10.7004 2.52662 11.3141 3.14038C11.9279 3.75413 12.2727 4.58656 12.2727 5.45455H5.72725C5.72725 4.58656 6.07205 3.75413 6.68581 3.14038C7.29957 2.52662 8.132 2.18182 8.99998 2.18182ZM2.45452 20.7273H15.5454V7.63636H2.45452V20.7273Z" fill="black"/>
</svg>
