<svg width="141" height="30" viewBox="0 0 141 30" fill="none" xmlns="http://www.w3.org/2000/svg">
<path d="M0.794423 18.312V17.5595C0.779574 17.4521 0.78982 17.3427 0.824351 17.2399C0.858883 17.1371 0.916758 17.0437 0.993449 16.967C1.07014 16.8903 1.16355 16.8324 1.26637 16.7979C1.36918 16.7633 1.47859 16.7531 1.58603 16.7679H4.78044C4.88798 16.7525 4.99765 16.7623 5.10074 16.7966C5.20383 16.831 5.29749 16.8888 5.37432 16.9657C5.45115 17.0425 5.50902 17.1362 5.54334 17.2392C5.57766 17.3423 5.58749 17.452 5.57204 17.5595V17.8672C5.57204 18.8202 5.75852 19.4728 6.13148 19.8253C6.5091 20.1777 7.19721 20.3512 8.20141 20.3512H9.96645C10.9455 20.3512 11.6289 20.1647 12.0168 19.7917C12.4047 19.4188 12.5995 18.7167 12.6014 17.6854V17.2351C12.6152 16.9022 12.5408 16.5716 12.3855 16.2769C12.2303 15.9821 11.9998 15.7336 11.7175 15.5567C11.0536 15.1438 10.2967 14.9043 9.5161 14.8602C8.56189 14.7727 7.61379 14.6279 6.67694 14.4267C5.7102 14.2272 4.76083 13.9513 3.83778 13.6015C2.89851 13.2075 2.12256 12.5036 1.63917 11.6071C1.04803 10.6169 0.753393 9.34509 0.755258 7.79171V6.47423C0.755258 4.51805 1.30724 3.00103 2.41121 1.92318C3.51517 0.845324 5.04337 0.306396 6.99582 0.306396H10.7581C12.7385 0.306396 14.2797 0.845324 15.3818 1.92318C16.4839 3.00103 17.0359 4.51805 17.0378 6.47423V7.19031C17.0532 7.29749 17.0435 7.4068 17.0093 7.50956C16.9751 7.61231 16.9175 7.70569 16.8409 7.78226C16.7643 7.85883 16.671 7.91649 16.5682 7.95067C16.4655 7.98484 16.3561 7.99458 16.249 7.97912H13.0546C12.9474 7.99458 12.8381 7.98484 12.7353 7.95067C12.6326 7.91649 12.5392 7.85883 12.4626 7.78226C12.386 7.70569 12.3284 7.61231 12.2942 7.50956C12.26 7.4068 12.2503 7.29749 12.2658 7.19031V6.95815C12.2658 5.97912 12.0755 5.31619 11.7063 4.96374C11.3371 4.61129 10.6406 4.43787 9.63918 4.43787H8.17064C7.14407 4.43787 6.44757 4.63367 6.08393 5.01969C5.7203 5.4057 5.53848 6.16654 5.53848 7.29661V8.00989C5.53848 9.19031 6.56412 9.86724 8.6154 10.0407C10.5624 10.1741 12.4774 10.6052 14.2937 11.319C15.2208 11.7411 15.9912 12.4449 16.4951 13.3302C17.0825 14.2943 17.3772 15.5297 17.379 17.0365V18.3148C17.379 20.271 16.8271 21.7871 15.7231 22.863C14.6191 23.939 13.09 24.478 11.1357 24.4798H7.05176C5.09559 24.4798 3.56645 23.9409 2.46435 22.863C1.36226 21.7852 0.805612 20.2682 0.794423 18.312Z" fill="#191919"/>
<path d="M25.2755 29.5929H22.0783C21.5525 29.5929 21.2895 29.3412 21.2895 28.8405V6.09081C21.2742 5.98353 21.284 5.87415 21.3181 5.77131C21.3523 5.66846 21.4099 5.57497 21.4864 5.4982C21.5629 5.42144 21.6562 5.3635 21.7589 5.32897C21.8617 5.29443 21.971 5.28424 22.0783 5.29921H25.2755C25.3835 5.28279 25.4938 5.29189 25.5976 5.32577C25.7015 5.35966 25.7959 5.41739 25.8734 5.49434C25.9509 5.57129 26.0093 5.66533 26.0439 5.7689C26.0785 5.87248 26.0884 5.98273 26.0727 6.09081V7.32997H26.2238C26.4987 6.65324 27.0235 6.10832 27.6895 5.8083C28.3804 5.47153 29.1391 5.29738 29.9077 5.29921H31.449C33.379 5.29921 34.8392 5.82601 35.8294 6.87962C36.8196 7.93324 37.3128 9.45119 37.3091 11.4335V18.3538C37.3091 20.3342 36.8131 21.8512 35.821 22.9048C34.8289 23.9584 33.3688 24.4843 31.4406 24.4824H29.8993C29.131 24.4851 28.3722 24.3119 27.6811 23.9761C27.0148 23.6752 26.4899 23.1293 26.2154 22.4517H26.0727V28.8461C26.0727 29.3356 25.793 29.5929 25.2755 29.5929ZM28.6601 20.3398H30.3133C31.1152 20.3398 31.6858 20.171 32.0252 19.8335C32.3646 19.4959 32.5333 18.9262 32.5315 18.1244V11.6544C32.5315 10.8517 32.3636 10.2838 32.0252 9.94536C31.6867 9.60689 31.1161 9.43627 30.3133 9.43627H28.6601C26.9296 9.43627 26.0643 10.3892 26.0643 12.295V17.4838C26.0699 19.3896 26.9352 20.3416 28.6601 20.3398Z" fill="#191919"/>
<path d="M50.2433 24.477H46.8867C44.9063 24.477 43.3771 23.9511 42.2993 22.8993C41.2214 21.8476 40.6825 20.3306 40.6825 18.3483V11.4336C40.6825 9.45692 41.2214 7.94084 42.2993 6.88536C43.3771 5.82988 44.9063 5.30307 46.8867 5.30494H50.2433C52.1976 5.30494 53.7203 5.83827 54.8112 6.90494C55.9021 7.9716 56.4475 9.48116 56.4475 11.4336V18.3539C56.4475 20.3101 55.9021 21.8206 54.8112 22.8854C53.7203 23.9502 52.1976 24.4807 50.2433 24.477ZM47.6112 20.3847H49.5272C50.331 20.3847 50.9016 20.2215 51.2391 19.8951C51.5767 19.5688 51.7464 19.0094 51.7482 18.2168V11.5791C51.7482 10.7791 51.5785 10.215 51.2391 9.88676C50.9007 9.56228 50.33 9.39725 49.5272 9.39725H47.6112C46.8084 9.39725 46.2433 9.56228 45.9189 9.88676C45.5944 10.2112 45.4293 10.7791 45.4293 11.5791V18.1972C45.4293 19.001 45.5925 19.5604 45.9189 19.8756C46.2452 20.1907 46.8093 20.3604 47.6112 20.3847Z" fill="#191919"/>
<path d="M64.193 24.477H60.9986C60.8913 24.4923 60.7819 24.4825 60.6791 24.4483C60.5763 24.4142 60.4828 24.3566 60.406 24.2801C60.3292 24.2036 60.2713 24.1103 60.2368 24.0075C60.2022 23.9048 60.192 23.7955 60.207 23.6881V6.09094C60.1915 5.9834 60.2014 5.87373 60.2357 5.77065C60.27 5.66756 60.3279 5.57388 60.4047 5.49705C60.4815 5.42023 60.5752 5.36236 60.6783 5.32804C60.7814 5.29372 60.8911 5.28389 60.9986 5.29934H64.193C64.3003 5.28438 64.4097 5.29456 64.5124 5.3291C64.6151 5.36363 64.7084 5.42157 64.7849 5.49833C64.8614 5.5751 64.919 5.6686 64.9532 5.77144C64.9874 5.87428 64.9972 5.98366 64.9818 6.09094V7.36927H65.1329C65.4105 6.68893 65.9336 6.1378 66.5986 5.82521C67.2866 5.47869 68.0464 5.29856 68.8168 5.29934H70.1706C70.6741 5.29934 70.9231 5.56227 70.9231 6.09094V8.68395C70.9477 8.90472 70.8877 9.12661 70.7552 9.30493C70.6729 9.36744 70.5781 9.41153 70.4772 9.43421C70.3764 9.45689 70.2718 9.45764 70.1706 9.4364H67.5776C65.849 9.4364 64.9837 10.4136 64.9818 12.3679V23.6881C64.9973 23.7953 64.9875 23.9046 64.9534 24.0074C64.9192 24.1101 64.8615 24.2035 64.785 24.2801C64.7084 24.3567 64.615 24.4143 64.5123 24.4485C64.4095 24.4827 64.3002 24.4924 64.193 24.477Z" fill="#191919"/>
<path d="M73.7455 9.43627H72.2406C72.0223 9.45929 71.8029 9.40591 71.6196 9.28522C71.5527 9.20135 71.5034 9.10488 71.4746 9.00157C71.4457 8.89825 71.438 8.79019 71.4517 8.68382V6.09081C71.4364 5.98353 71.4462 5.87415 71.4804 5.77131C71.5145 5.66846 71.5722 5.57497 71.6486 5.4982C71.7251 5.42143 71.8184 5.3635 71.9212 5.32896C72.0239 5.29443 72.1332 5.28424 72.2406 5.29921H73.7455C73.8016 5.30725 73.8588 5.30206 73.9125 5.28405C73.9663 5.26605 74.0151 5.23572 74.0551 5.1955C74.095 5.15528 74.125 5.10628 74.1426 5.0524C74.1603 4.99853 74.1651 4.94128 74.1567 4.88522V1.31319C74.1567 0.787317 74.4364 0.524378 74.9958 0.524378H78.1538C78.2611 0.509034 78.3705 0.518837 78.4733 0.553009C78.5762 0.58718 78.6697 0.644783 78.7465 0.721278C78.8232 0.797773 78.8812 0.891066 78.9157 0.993789C78.9502 1.09651 78.9604 1.20586 78.9455 1.31319V4.88522C78.9455 5.16494 79.0965 5.29921 79.3958 5.29921H82.3273C82.4348 5.28376 82.5445 5.29358 82.6476 5.3279C82.7507 5.36222 82.8443 5.42009 82.9212 5.49692C82.998 5.57375 83.0559 5.66742 83.0902 5.77051C83.1245 5.8736 83.1343 5.98326 83.1189 6.09081V8.68382C83.1407 8.89351 83.0794 9.10339 82.9483 9.26843C82.7699 9.40089 82.548 9.46086 82.3273 9.43627H79.3846C79.0853 9.43627 78.9343 9.57333 78.9343 9.85025V18.1607C78.9343 18.9384 79.1077 19.495 79.4601 19.8391C79.8126 20.1831 80.3888 20.3454 81.1888 20.3454H82.6937C82.801 20.3304 82.9104 20.3406 83.0131 20.3751C83.1158 20.4097 83.2091 20.4676 83.2856 20.5444C83.3621 20.6211 83.4197 20.7146 83.4539 20.8175C83.4881 20.9203 83.4979 21.0297 83.4825 21.137V23.73C83.5039 23.9392 83.4438 24.1486 83.3147 24.3146C83.1364 24.447 82.9145 24.507 82.6937 24.4824H80.4C78.4196 24.4824 76.8839 23.9565 75.793 22.9048C74.7021 21.8531 74.1567 20.3482 74.1567 18.3901V9.85025C74.1651 9.79419 74.1603 9.73694 74.1426 9.68307C74.125 9.62919 74.095 9.58019 74.0551 9.53997C74.0151 9.49975 73.9663 9.46942 73.9125 9.45142C73.8588 9.43341 73.8016 9.42822 73.7455 9.43627Z" fill="#191919"/>
<path d="M86.3413 23.6881V21.4336C86.3413 20.6056 86.5044 19.9912 86.8308 19.5902L96.7944 4.88535V4.7371H87.807C87.6997 4.75206 87.5903 4.74187 87.4876 4.70734C87.3849 4.6728 87.2916 4.61487 87.2151 4.5381C87.1386 4.46133 87.081 4.36784 87.0468 4.26499C87.0126 4.16215 87.0028 4.05277 87.0182 3.94549V1.08395C87.0028 0.97667 87.0126 0.867291 87.0468 0.764447C87.081 0.661602 87.1386 0.568109 87.2151 0.491342C87.2916 0.414576 87.3849 0.356639 87.4876 0.322104C87.5903 0.287569 87.6997 0.277379 87.807 0.292342H101.158C101.659 0.292342 101.908 0.55528 101.908 1.08395V4.31752C101.926 5.01208 101.731 5.69555 101.348 6.27556L91.9832 19.8867V20.0378H101.536C102.036 20.0378 102.288 20.2756 102.288 20.7511V23.6098C102.288 24.186 102.036 24.4742 101.536 24.4742H87.1301C87.0232 24.4895 86.9141 24.4798 86.8116 24.4458C86.7091 24.4117 86.6159 24.3544 86.5394 24.2781C86.4629 24.2019 86.4052 24.1089 86.3708 24.0065C86.3364 23.9041 86.3263 23.7951 86.3413 23.6881Z" fill="#191919"/>
<path d="M115.371 24.477H112.014C110.034 24.477 108.504 23.9511 107.427 22.8993C106.349 21.8476 105.809 20.3306 105.807 18.3483V11.4336C105.807 9.45692 106.347 7.94084 107.427 6.88536C108.506 5.82988 110.035 5.30307 112.014 5.30494H115.371C117.327 5.30494 118.849 5.83827 119.938 6.90494C121.028 7.9716 121.573 9.48116 121.575 11.4336V18.3539C121.575 20.3101 121.029 21.8206 119.938 22.8854C118.848 23.9502 117.325 24.4807 115.371 24.477ZM112.738 20.3847H114.657C115.457 20.3847 116.027 20.2215 116.366 19.8951C116.706 19.5688 116.876 19.0094 116.876 18.2168V11.5791C116.876 10.7791 116.706 10.215 116.366 9.88676C116.028 9.56228 115.457 9.39725 114.657 9.39725H112.738C111.936 9.39725 111.373 9.56228 111.046 9.88676C110.719 10.2112 110.557 10.7791 110.557 11.5791V18.1972C110.557 19 110.722 19.5651 111.046 19.8756C111.371 20.1861 111.947 20.3847 112.738 20.3847Z" fill="#191919"/>
<path d="M134.512 24.477H131.155C129.175 24.477 127.646 23.9511 126.568 22.8993C125.49 21.8476 124.951 20.3306 124.951 18.3483V11.4336C124.951 9.45692 125.49 7.94084 126.568 6.88536C127.646 5.82988 129.175 5.30307 131.155 5.30494H134.512C136.468 5.30494 137.991 5.83827 139.08 6.90494C140.169 7.9716 140.713 9.48116 140.713 11.4336V18.3539C140.713 20.3101 140.169 21.8206 139.08 22.8854C137.991 23.9502 136.468 24.4807 134.512 24.477ZM131.88 20.3847H133.796C134.598 20.3847 135.168 20.2215 135.508 19.8951C135.847 19.5688 136.016 19.0094 136.014 18.2168V11.5791C136.014 10.7791 135.845 10.215 135.508 9.88676C135.169 9.56228 134.599 9.39725 133.796 9.39725H131.88C131.077 9.39725 130.512 9.56228 130.201 9.88676C129.891 10.2112 129.712 10.7791 129.712 11.5791V18.1972C129.712 19.001 129.875 19.5604 130.201 19.8756C130.528 20.1907 131.087 20.3604 131.88 20.3847Z" fill="#191919"/>
</svg>
