<svg width="1920" height="941" viewBox="0 0 1920 941" fill="none" xmlns="http://www.w3.org/2000/svg">
<g opacity="0.08">
<mask id="path-1-inside-1_95_867" fill="white">
<path d="M1979 -338.66C1979 -338.66 1979 -338.66 448.207 -338.66C-138.566 -338.66 -191.217 181.243 161.711 359.12C431.342 494.877 767.405 570.278 499.83 1279.34L1979 -338.66ZM1464.83 -118.289L798.461 609.576C790.436 588.021 781.168 566.869 770.696 546.21C670.947 353.291 490.781 268.301 346.196 200.046C322.132 188.388 299.098 177.67 277.502 166.765C193.59 124.458 170.76 49.6219 185.363 -2.46252C194.105 -31.7749 214.492 -57.0519 242.539 -73.35C289.637 -103.059 360.387 -118.665 448.207 -118.665H1464.42"/>
</mask>
<path d="M1979 -338.66L1979.74 -337.986L1981.27 -339.66H1979V-338.66ZM161.711 359.12L161.261 360.013L161.261 360.013L161.711 359.12ZM499.83 1279.34L498.894 1278.99L500.568 1280.01L499.83 1279.34ZM798.461 609.576L797.524 609.925L798.095 611.457L799.199 610.251L798.461 609.576ZM770.696 546.21L771.588 545.758L771.584 545.751L770.696 546.21ZM346.196 200.046L345.76 200.946L345.769 200.95L346.196 200.046ZM277.502 166.765L277.953 165.872L277.953 165.872L277.502 166.765ZM185.363 -2.46252L184.404 -2.74832L184.402 -2.74042L184.4 -2.73248L185.363 -2.46252ZM242.539 -73.35L243.041 -72.4854L243.057 -72.4945L243.072 -72.5042L242.539 -73.35ZM1979 -338.66C1979 -339.66 1979 -339.66 1979 -339.66H1979C1979 -339.66 1979 -339.66 1979 -339.66C1979 -339.66 1979 -339.66 1979 -339.66C1979 -339.66 1979 -339.66 1979 -339.66C1979 -339.66 1979 -339.66 1979 -339.66C1979 -339.66 1979 -339.66 1979 -339.66C1979 -339.66 1978.99 -339.66 1978.99 -339.66C1978.99 -339.66 1978.99 -339.66 1978.99 -339.66C1978.99 -339.66 1978.99 -339.66 1978.99 -339.66C1978.99 -339.66 1978.99 -339.66 1978.98 -339.66C1978.98 -339.66 1978.98 -339.66 1978.98 -339.66C1978.98 -339.66 1978.98 -339.66 1978.97 -339.66C1978.97 -339.66 1978.97 -339.66 1978.97 -339.66C1978.97 -339.66 1978.96 -339.66 1978.96 -339.66C1978.96 -339.66 1978.96 -339.66 1978.95 -339.66C1978.95 -339.66 1978.95 -339.66 1978.94 -339.66C1978.94 -339.66 1978.94 -339.66 1978.93 -339.66C1978.93 -339.66 1978.93 -339.66 1978.92 -339.66C1978.92 -339.66 1978.91 -339.66 1978.91 -339.66C1978.9 -339.66 1978.9 -339.66 1978.89 -339.66C1978.89 -339.66 1978.88 -339.66 1978.88 -339.66C1978.87 -339.66 1978.87 -339.66 1978.86 -339.66C1978.86 -339.66 1978.85 -339.66 1978.84 -339.66C1978.84 -339.66 1978.83 -339.66 1978.82 -339.66C1978.81 -339.66 1978.81 -339.66 1978.8 -339.66C1978.79 -339.66 1978.78 -339.66 1978.78 -339.66C1978.77 -339.66 1978.76 -339.66 1978.75 -339.66C1978.74 -339.66 1978.73 -339.66 1978.72 -339.66C1978.71 -339.66 1978.7 -339.66 1978.69 -339.66C1978.68 -339.66 1978.67 -339.66 1978.66 -339.66C1978.65 -339.66 1978.64 -339.66 1978.63 -339.66C1978.61 -339.66 1978.6 -339.66 1978.59 -339.66C1978.58 -339.66 1978.56 -339.66 1978.55 -339.66C1978.54 -339.66 1978.52 -339.66 1978.51 -339.66C1978.5 -339.66 1978.48 -339.66 1978.47 -339.66C1978.45 -339.66 1978.44 -339.66 1978.42 -339.66C1978.41 -339.66 1978.39 -339.66 1978.37 -339.66C1978.36 -339.66 1978.34 -339.66 1978.32 -339.66C1978.31 -339.66 1978.29 -339.66 1978.27 -339.66C1978.25 -339.66 1978.23 -339.66 1978.21 -339.66C1978.19 -339.66 1978.18 -339.66 1978.16 -339.66C1978.13 -339.66 1978.11 -339.66 1978.09 -339.66C1978.07 -339.66 1978.05 -339.66 1978.03 -339.66C1978.01 -339.66 1977.98 -339.66 1977.96 -339.66C1977.94 -339.66 1977.91 -339.66 1977.89 -339.66C1977.87 -339.66 1977.84 -339.66 1977.82 -339.66C1977.79 -339.66 1977.76 -339.66 1977.74 -339.66C1977.71 -339.66 1977.69 -339.66 1977.66 -339.66C1977.63 -339.66 1977.6 -339.66 1977.57 -339.66C1977.55 -339.66 1977.52 -339.66 1977.49 -339.66C1977.46 -339.66 1977.43 -339.66 1977.4 -339.66C1977.37 -339.66 1977.33 -339.66 1977.3 -339.66C1977.27 -339.66 1977.24 -339.66 1977.2 -339.66C1977.17 -339.66 1977.14 -339.66 1977.1 -339.66C1977.07 -339.66 1977.03 -339.66 1977 -339.66C1976.96 -339.66 1976.92 -339.66 1976.89 -339.66C1976.85 -339.66 1976.81 -339.66 1976.77 -339.66C1976.74 -339.66 1976.7 -339.66 1976.66 -339.66C1976.62 -339.66 1976.58 -339.66 1976.54 -339.66C1976.5 -339.66 1976.45 -339.66 1976.41 -339.66C1976.37 -339.66 1976.33 -339.66 1976.28 -339.66C1976.24 -339.66 1976.19 -339.66 1976.15 -339.66C1976.1 -339.66 1976.06 -339.66 1976.01 -339.66C1975.96 -339.66 1975.92 -339.66 1975.87 -339.66C1975.82 -339.66 1975.77 -339.66 1975.72 -339.66C1975.67 -339.66 1975.62 -339.66 1975.57 -339.66C1975.52 -339.66 1975.47 -339.66 1975.41 -339.66C1975.36 -339.66 1975.31 -339.66 1975.25 -339.66C1975.2 -339.66 1975.14 -339.66 1975.09 -339.66C1975.03 -339.66 1974.98 -339.66 1974.92 -339.66C1974.86 -339.66 1974.8 -339.66 1974.74 -339.66C1974.68 -339.66 1974.62 -339.66 1974.56 -339.66C1974.5 -339.66 1974.44 -339.66 1974.38 -339.66C1974.32 -339.66 1974.25 -339.66 1974.19 -339.66C1974.12 -339.66 1974.06 -339.66 1973.99 -339.66C1973.93 -339.66 1973.86 -339.66 1973.79 -339.66C1973.73 -339.66 1973.66 -339.66 1973.59 -339.66C1973.52 -339.66 1973.45 -339.66 1973.38 -339.66C1973.31 -339.66 1973.23 -339.66 1973.16 -339.66C1973.09 -339.66 1973.01 -339.66 1972.94 -339.66C1972.86 -339.66 1972.79 -339.66 1972.71 -339.66C1972.63 -339.66 1972.56 -339.66 1972.48 -339.66C1972.4 -339.66 1972.32 -339.66 1972.24 -339.66C1972.16 -339.66 1972.08 -339.66 1972 -339.66C1971.91 -339.66 1971.83 -339.66 1971.75 -339.66C1971.66 -339.66 1971.58 -339.66 1971.49 -339.66C1971.4 -339.66 1971.32 -339.66 1971.23 -339.66C1971.14 -339.66 1971.05 -339.66 1970.96 -339.66C1970.87 -339.66 1970.78 -339.66 1970.69 -339.66C1970.59 -339.66 1970.5 -339.66 1970.41 -339.66C1970.31 -339.66 1970.22 -339.66 1970.12 -339.66C1970.02 -339.66 1969.92 -339.66 1969.83 -339.66C1969.73 -339.66 1969.63 -339.66 1969.53 -339.66C1969.43 -339.66 1969.32 -339.66 1969.22 -339.66C1969.12 -339.66 1969.01 -339.66 1968.91 -339.66C1968.8 -339.66 1968.7 -339.66 1968.59 -339.66C1968.48 -339.66 1968.37 -339.66 1968.27 -339.66C1968.16 -339.66 1968.05 -339.66 1967.93 -339.66C1967.82 -339.66 1967.71 -339.66 1967.59 -339.66C1967.48 -339.66 1967.37 -339.66 1967.25 -339.66C1967.13 -339.66 1967.02 -339.66 1966.9 -339.66C1966.78 -339.66 1966.66 -339.66 1966.54 -339.66C1966.42 -339.66 1966.29 -339.66 1966.17 -339.66C1966.05 -339.66 1965.92 -339.66 1965.8 -339.66C1965.67 -339.66 1965.54 -339.66 1965.42 -339.66C1965.29 -339.66 1965.16 -339.66 1965.03 -339.66C1964.9 -339.66 1964.77 -339.66 1964.63 -339.66C1964.5 -339.66 1964.37 -339.66 1964.23 -339.66C1964.09 -339.66 1963.96 -339.66 1963.82 -339.66C1963.68 -339.66 1963.54 -339.66 1963.4 -339.66C1963.26 -339.66 1963.12 -339.66 1962.98 -339.66C1962.83 -339.66 1962.69 -339.66 1962.54 -339.66C1962.4 -339.66 1962.25 -339.66 1962.1 -339.66C1961.95 -339.66 1961.8 -339.66 1961.65 -339.66C1961.5 -339.66 1961.35 -339.66 1961.2 -339.66C1961.04 -339.66 1960.89 -339.66 1960.73 -339.66C1960.58 -339.66 1960.42 -339.66 1960.26 -339.66C1960.1 -339.66 1959.94 -339.66 1959.78 -339.66C1959.62 -339.66 1959.46 -339.66 1959.29 -339.66C1959.13 -339.66 1958.96 -339.66 1958.79 -339.66C1958.63 -339.66 1958.46 -339.66 1958.29 -339.66C1958.12 -339.66 1957.95 -339.66 1957.78 -339.66C1957.6 -339.66 1957.43 -339.66 1957.25 -339.66C1957.08 -339.66 1956.9 -339.66 1956.72 -339.66C1956.55 -339.66 1956.37 -339.66 1956.19 -339.66C1956 -339.66 1955.82 -339.66 1955.64 -339.66C1955.45 -339.66 1955.27 -339.66 1955.08 -339.66C1954.89 -339.66 1954.71 -339.66 1954.52 -339.66C1954.33 -339.66 1954.14 -339.66 1953.94 -339.66C1953.75 -339.66 1953.56 -339.66 1953.36 -339.66C1953.16 -339.66 1952.97 -339.66 1952.77 -339.66C1952.57 -339.66 1952.37 -339.66 1952.17 -339.66C1951.97 -339.66 1951.76 -339.66 1951.56 -339.66C1951.35 -339.66 1951.15 -339.66 1950.94 -339.66C1950.73 -339.66 1950.52 -339.66 1950.31 -339.66C1950.1 -339.66 1949.89 -339.66 1949.67 -339.66C1949.46 -339.66 1949.24 -339.66 1949.03 -339.66C1948.81 -339.66 1948.59 -339.66 1948.37 -339.66C1948.15 -339.66 1947.93 -339.66 1947.7 -339.66C1947.48 -339.66 1947.26 -339.66 1947.03 -339.66C1946.8 -339.66 1946.57 -339.66 1946.34 -339.66C1946.11 -339.66 1945.88 -339.66 1945.65 -339.66C1945.42 -339.66 1945.18 -339.66 1944.94 -339.66C1944.71 -339.66 1944.47 -339.66 1944.23 -339.66C1943.99 -339.66 1943.75 -339.66 1943.51 -339.66C1943.26 -339.66 1943.02 -339.66 1942.77 -339.66C1942.52 -339.66 1942.28 -339.66 1942.03 -339.66C1941.78 -339.66 1941.53 -339.66 1941.27 -339.66C1941.02 -339.66 1940.76 -339.66 1940.51 -339.66C1940.25 -339.66 1939.99 -339.66 1939.73 -339.66C1939.47 -339.66 1939.21 -339.66 1938.95 -339.66C1938.68 -339.66 1938.42 -339.66 1938.15 -339.66C1937.88 -339.66 1937.62 -339.66 1937.34 -339.66C1937.07 -339.66 1936.8 -339.66 1936.53 -339.66C1936.25 -339.66 1935.98 -339.66 1935.7 -339.66C1935.42 -339.66 1935.14 -339.66 1934.86 -339.66C1934.58 -339.66 1934.3 -339.66 1934.01 -339.66C1933.73 -339.66 1933.44 -339.66 1933.15 -339.66C1932.87 -339.66 1932.58 -339.66 1932.28 -339.66C1931.99 -339.66 1931.7 -339.66 1931.4 -339.66C1931.11 -339.66 1930.81 -339.66 1930.51 -339.66C1930.21 -339.66 1929.91 -339.66 1929.61 -339.66C1929.3 -339.66 1929 -339.66 1928.69 -339.66C1928.39 -339.66 1928.08 -339.66 1927.77 -339.66C1927.46 -339.66 1927.14 -339.66 1926.83 -339.66C1926.51 -339.66 1926.2 -339.66 1925.88 -339.66C1925.56 -339.66 1925.24 -339.66 1924.92 -339.66C1924.6 -339.66 1924.27 -339.66 1923.95 -339.66C1923.62 -339.66 1923.3 -339.66 1922.97 -339.66C1922.64 -339.66 1922.3 -339.66 1921.97 -339.66C1921.64 -339.66 1921.3 -339.66 1920.96 -339.66C1920.63 -339.66 1920.29 -339.66 1919.95 -339.66C1919.61 -339.66 1919.26 -339.66 1918.92 -339.66C1918.57 -339.66 1918.22 -339.66 1917.87 -339.66C1917.53 -339.66 1917.17 -339.66 1916.82 -339.66C1916.47 -339.66 1916.11 -339.66 1915.75 -339.66C1915.4 -339.66 1915.04 -339.66 1914.68 -339.66C1914.32 -339.66 1913.95 -339.66 1913.59 -339.66C1913.22 -339.66 1912.85 -339.66 1912.48 -339.66C1912.11 -339.66 1911.74 -339.66 1911.37 -339.66C1911 -339.66 1910.62 -339.66 1910.24 -339.66C1909.86 -339.66 1909.48 -339.66 1909.1 -339.66C1908.72 -339.66 1908.34 -339.66 1907.95 -339.66C1907.56 -339.66 1907.18 -339.66 1906.79 -339.66C1906.4 -339.66 1906 -339.66 1905.61 -339.66C1905.21 -339.66 1904.82 -339.66 1904.42 -339.66C1904.02 -339.66 1903.62 -339.66 1903.22 -339.66C1902.81 -339.66 1902.41 -339.66 1902 -339.66C1901.59 -339.66 1901.18 -339.66 1900.77 -339.66C1900.36 -339.66 1899.95 -339.66 1899.53 -339.66C1899.11 -339.66 1898.69 -339.66 1898.27 -339.66C1897.85 -339.66 1897.43 -339.66 1897.01 -339.66C1896.58 -339.66 1896.15 -339.66 1895.73 -339.66C1895.3 -339.66 1894.86 -339.66 1894.43 -339.66C1894 -339.66 1893.56 -339.66 1893.12 -339.66C1892.69 -339.66 1892.24 -339.66 1891.8 -339.66C1891.36 -339.66 1890.91 -339.66 1890.47 -339.66C1890.02 -339.66 1889.57 -339.66 1889.12 -339.66C1888.67 -339.66 1888.21 -339.66 1887.76 -339.66C1887.3 -339.66 1886.84 -339.66 1886.38 -339.66C1885.92 -339.66 1885.46 -339.66 1884.99 -339.66C1884.53 -339.66 1884.06 -339.66 1883.59 -339.66C1883.12 -339.66 1882.65 -339.66 1882.17 -339.66C1881.7 -339.66 1881.22 -339.66 1880.74 -339.66C1880.26 -339.66 1879.78 -339.66 1879.3 -339.66C1878.81 -339.66 1878.33 -339.66 1877.84 -339.66C1877.35 -339.66 1876.86 -339.66 1876.36 -339.66C1875.87 -339.66 1875.38 -339.66 1874.88 -339.66C1874.38 -339.66 1873.88 -339.66 1873.38 -339.66C1872.87 -339.66 1872.37 -339.66 1871.86 -339.66C1871.35 -339.66 1870.84 -339.66 1870.33 -339.66C1869.82 -339.66 1869.3 -339.66 1868.78 -339.66C1868.27 -339.66 1867.75 -339.66 1867.22 -339.66C1866.7 -339.66 1866.18 -339.66 1865.65 -339.66C1865.12 -339.66 1864.59 -339.66 1864.06 -339.66C1863.53 -339.66 1862.99 -339.66 1862.46 -339.66C1861.92 -339.66 1861.38 -339.66 1860.84 -339.66C1860.3 -339.66 1859.75 -339.66 1859.2 -339.66C1858.66 -339.66 1858.11 -339.66 1857.56 -339.66C1857 -339.66 1856.45 -339.66 1855.89 -339.66C1855.34 -339.66 1854.78 -339.66 1854.21 -339.66C1853.65 -339.66 1853.09 -339.66 1852.52 -339.66C1851.95 -339.66 1851.38 -339.66 1850.81 -339.66C1850.24 -339.66 1849.66 -339.66 1849.09 -339.66C1848.51 -339.66 1847.93 -339.66 1847.35 -339.66C1846.76 -339.66 1846.18 -339.66 1845.59 -339.66C1845 -339.66 1844.41 -339.66 1843.82 -339.66C1843.23 -339.66 1842.63 -339.66 1842.03 -339.66C1841.44 -339.66 1840.84 -339.66 1840.23 -339.66C1839.63 -339.66 1839.02 -339.66 1838.41 -339.66C1837.81 -339.66 1837.19 -339.66 1836.58 -339.66C1835.97 -339.66 1835.35 -339.66 1834.73 -339.66C1834.11 -339.66 1833.49 -339.66 1832.86 -339.66C1832.24 -339.66 1831.61 -339.66 1830.98 -339.66C1830.35 -339.66 1829.72 -339.66 1829.09 -339.66C1828.45 -339.66 1827.81 -339.66 1827.17 -339.66C1826.53 -339.66 1825.89 -339.66 1825.24 -339.66C1824.6 -339.66 1823.95 -339.66 1823.3 -339.66C1822.64 -339.66 1821.99 -339.66 1821.33 -339.66C1820.68 -339.66 1820.02 -339.66 1819.35 -339.66C1818.69 -339.66 1818.03 -339.66 1817.36 -339.66C1816.69 -339.66 1816.02 -339.66 1815.35 -339.66C1814.67 -339.66 1814 -339.66 1813.32 -339.66C1812.64 -339.66 1811.96 -339.66 1811.27 -339.66C1810.59 -339.66 1809.9 -339.66 1809.21 -339.66C1808.52 -339.66 1807.83 -339.66 1807.13 -339.66C1806.44 -339.66 1805.74 -339.66 1805.04 -339.66C1804.33 -339.66 1803.63 -339.66 1802.92 -339.66C1802.21 -339.66 1801.51 -339.66 1800.79 -339.66C1800.08 -339.66 1799.36 -339.66 1798.65 -339.66C1797.93 -339.66 1797.21 -339.66 1796.48 -339.66C1795.76 -339.66 1795.03 -339.66 1794.3 -339.66C1793.57 -339.66 1792.84 -339.66 1792.1 -339.66C1791.36 -339.66 1790.63 -339.66 1789.88 -339.66C1789.14 -339.66 1788.4 -339.66 1787.65 -339.66C1786.9 -339.66 1786.15 -339.66 1785.4 -339.66C1784.65 -339.66 1783.89 -339.66 1783.13 -339.66C1782.37 -339.66 1781.61 -339.66 1780.84 -339.66C1780.08 -339.66 1779.31 -339.66 1778.54 -339.66C1777.77 -339.66 1777 -339.66 1776.22 -339.66C1775.44 -339.66 1774.66 -339.66 1773.88 -339.66C1773.1 -339.66 1772.31 -339.66 1771.52 -339.66C1770.73 -339.66 1769.94 -339.66 1769.15 -339.66C1768.35 -339.66 1767.55 -339.66 1766.75 -339.66C1765.95 -339.66 1765.15 -339.66 1764.34 -339.66C1763.53 -339.66 1762.72 -339.66 1761.91 -339.66C1761.1 -339.66 1760.28 -339.66 1759.46 -339.66C1758.64 -339.66 1757.82 -339.66 1756.99 -339.66C1756.17 -339.66 1755.34 -339.66 1754.51 -339.66C1753.68 -339.66 1752.84 -339.66 1752.01 -339.66C1751.17 -339.66 1750.33 -339.66 1749.48 -339.66C1748.64 -339.66 1747.79 -339.66 1746.94 -339.66C1746.09 -339.66 1745.24 -339.66 1744.38 -339.66C1743.53 -339.66 1742.67 -339.66 1741.81 -339.66C1740.94 -339.66 1740.08 -339.66 1739.21 -339.66C1738.34 -339.66 1737.47 -339.66 1736.59 -339.66C1735.72 -339.66 1734.84 -339.66 1733.96 -339.66C1733.08 -339.66 1732.19 -339.66 1731.3 -339.66C1730.42 -339.66 1729.53 -339.66 1728.63 -339.66C1727.74 -339.66 1726.84 -339.66 1725.94 -339.66C1725.04 -339.66 1724.13 -339.66 1723.23 -339.66C1722.32 -339.66 1721.41 -339.66 1720.5 -339.66C1719.58 -339.66 1718.67 -339.66 1717.75 -339.66C1716.83 -339.66 1715.9 -339.66 1714.98 -339.66C1714.05 -339.66 1713.12 -339.66 1712.19 -339.66C1711.26 -339.66 1710.32 -339.66 1709.38 -339.66C1708.44 -339.66 1707.5 -339.66 1706.55 -339.66C1705.61 -339.66 1704.66 -339.66 1703.7 -339.66C1702.75 -339.66 1701.8 -339.66 1700.84 -339.66C1699.88 -339.66 1698.91 -339.66 1697.95 -339.66C1696.98 -339.66 1696.01 -339.66 1695.04 -339.66C1694.07 -339.66 1693.09 -339.66 1692.11 -339.66C1691.13 -339.66 1690.15 -339.66 1689.17 -339.66C1688.18 -339.66 1687.19 -339.66 1686.2 -339.66C1685.21 -339.66 1684.21 -339.66 1683.21 -339.66C1682.21 -339.66 1681.21 -339.66 1680.2 -339.66C1679.2 -339.66 1678.19 -339.66 1677.17 -339.66C1676.16 -339.66 1675.15 -339.66 1674.13 -339.66C1673.11 -339.66 1672.08 -339.66 1671.06 -339.66C1670.03 -339.66 1669 -339.66 1667.97 -339.66C1666.93 -339.66 1665.9 -339.66 1664.86 -339.66C1663.82 -339.66 1662.77 -339.66 1661.73 -339.66C1660.68 -339.66 1659.63 -339.66 1658.57 -339.66C1657.52 -339.66 1656.46 -339.66 1655.4 -339.66C1654.34 -339.66 1653.28 -339.66 1652.21 -339.66C1651.14 -339.66 1650.07 -339.66 1648.99 -339.66C1647.92 -339.66 1646.84 -339.66 1645.76 -339.66C1644.68 -339.66 1643.59 -339.66 1642.5 -339.66C1641.41 -339.66 1640.32 -339.66 1639.22 -339.66C1638.13 -339.66 1637.03 -339.66 1635.93 -339.66C1634.82 -339.66 1633.72 -339.66 1632.61 -339.66C1631.5 -339.66 1630.38 -339.66 1629.26 -339.66C1628.15 -339.66 1627.03 -339.66 1625.9 -339.66C1624.78 -339.66 1623.65 -339.66 1622.52 -339.66C1621.39 -339.66 1620.25 -339.66 1619.11 -339.66C1617.97 -339.66 1616.83 -339.66 1615.68 -339.66C1614.54 -339.66 1613.39 -339.66 1612.23 -339.66C1611.08 -339.66 1609.92 -339.66 1608.76 -339.66C1607.6 -339.66 1606.44 -339.66 1605.27 -339.66C1604.1 -339.66 1602.93 -339.66 1601.76 -339.66C1600.58 -339.66 1599.4 -339.66 1598.22 -339.66C1597.04 -339.66 1595.85 -339.66 1594.66 -339.66C1593.47 -339.66 1592.28 -339.66 1591.08 -339.66C1589.88 -339.66 1588.68 -339.66 1587.48 -339.66C1586.27 -339.66 1585.06 -339.66 1583.85 -339.66C1582.64 -339.66 1581.42 -339.66 1580.2 -339.66C1578.99 -339.66 1577.76 -339.66 1576.54 -339.66C1575.31 -339.66 1574.08 -339.66 1572.84 -339.66C1571.61 -339.66 1570.37 -339.66 1569.13 -339.66C1567.89 -339.66 1566.64 -339.66 1565.39 -339.66C1564.14 -339.66 1562.89 -339.66 1561.63 -339.66C1560.37 -339.66 1559.11 -339.66 1557.85 -339.66C1556.58 -339.66 1555.31 -339.66 1554.04 -339.66C1552.77 -339.66 1551.49 -339.66 1550.21 -339.66C1548.93 -339.66 1547.65 -339.66 1546.36 -339.66C1545.07 -339.66 1543.78 -339.66 1542.49 -339.66C1541.19 -339.66 1539.89 -339.66 1538.59 -339.66C1537.29 -339.66 1535.98 -339.66 1534.67 -339.66C1533.36 -339.66 1532.04 -339.66 1530.73 -339.66C1529.41 -339.66 1528.09 -339.66 1526.76 -339.66C1525.43 -339.66 1524.1 -339.66 1522.77 -339.66C1521.43 -339.66 1520.1 -339.66 1518.76 -339.66C1517.41 -339.66 1516.07 -339.66 1514.72 -339.66C1513.37 -339.66 1512.01 -339.66 1510.66 -339.66C1509.3 -339.66 1507.94 -339.66 1506.57 -339.66C1505.21 -339.66 1503.84 -339.66 1502.46 -339.66C1501.09 -339.66 1499.71 -339.66 1498.33 -339.66C1496.95 -339.66 1495.57 -339.66 1494.18 -339.66C1492.79 -339.66 1491.4 -339.66 1490 -339.66C1488.6 -339.66 1487.2 -339.66 1485.79 -339.66C1484.39 -339.66 1482.98 -339.66 1481.57 -339.66C1480.15 -339.66 1478.74 -339.66 1477.32 -339.66C1475.89 -339.66 1474.47 -339.66 1473.04 -339.66C1471.61 -339.66 1470.18 -339.66 1468.74 -339.66C1467.3 -339.66 1465.86 -339.66 1464.42 -339.66C1462.97 -339.66 1461.52 -339.66 1460.07 -339.66C1458.61 -339.66 1457.16 -339.66 1455.69 -339.66C1454.23 -339.66 1452.77 -339.66 1451.3 -339.66C1449.83 -339.66 1448.35 -339.66 1446.87 -339.66C1445.4 -339.66 1443.91 -339.66 1442.43 -339.66C1440.94 -339.66 1439.45 -339.66 1437.96 -339.66C1436.46 -339.66 1434.96 -339.66 1433.46 -339.66C1431.96 -339.66 1430.45 -339.66 1428.94 -339.66C1427.43 -339.66 1425.91 -339.66 1424.39 -339.66C1422.87 -339.66 1421.35 -339.66 1419.82 -339.66C1418.29 -339.66 1416.76 -339.66 1415.23 -339.66C1413.69 -339.66 1412.15 -339.66 1410.61 -339.66C1409.06 -339.66 1407.51 -339.66 1405.96 -339.66C1404.41 -339.66 1402.85 -339.66 1401.29 -339.66C1399.73 -339.66 1398.16 -339.66 1396.59 -339.66C1395.02 -339.66 1393.45 -339.66 1391.87 -339.66C1390.29 -339.66 1388.71 -339.66 1387.12 -339.66C1385.53 -339.66 1383.94 -339.66 1382.35 -339.66C1380.75 -339.66 1379.15 -339.66 1377.55 -339.66C1375.94 -339.66 1374.34 -339.66 1372.72 -339.66C1371.11 -339.66 1369.5 -339.66 1367.87 -339.66C1366.25 -339.66 1364.63 -339.66 1363 -339.66C1361.37 -339.66 1359.73 -339.66 1358.1 -339.66C1356.46 -339.66 1354.82 -339.66 1353.17 -339.66C1351.52 -339.66 1349.87 -339.66 1348.21 -339.66C1346.56 -339.66 1344.9 -339.66 1343.23 -339.66C1341.57 -339.66 1339.9 -339.66 1338.23 -339.66C1336.56 -339.66 1334.88 -339.66 1333.2 -339.66C1331.52 -339.66 1329.83 -339.66 1328.14 -339.66C1326.45 -339.66 1324.75 -339.66 1323.05 -339.66C1321.35 -339.66 1319.65 -339.66 1317.94 -339.66C1316.23 -339.66 1314.52 -339.66 1312.8 -339.66C1311.09 -339.66 1309.37 -339.66 1307.64 -339.66C1305.91 -339.66 1304.18 -339.66 1302.45 -339.66C1300.71 -339.66 1298.98 -339.66 1297.23 -339.66C1295.49 -339.66 1293.74 -339.66 1291.99 -339.66C1290.23 -339.66 1288.48 -339.66 1286.72 -339.66C1284.95 -339.66 1283.19 -339.66 1281.42 -339.66C1279.65 -339.66 1277.87 -339.66 1276.09 -339.66C1274.31 -339.66 1272.53 -339.66 1270.74 -339.66C1268.95 -339.66 1267.16 -339.66 1265.36 -339.66C1263.56 -339.66 1261.76 -339.66 1259.96 -339.66C1258.15 -339.66 1256.34 -339.66 1254.52 -339.66C1252.71 -339.66 1250.89 -339.66 1249.06 -339.66C1247.24 -339.66 1245.41 -339.66 1243.57 -339.66C1241.74 -339.66 1239.9 -339.66 1238.06 -339.66C1236.21 -339.66 1234.37 -339.66 1232.51 -339.66C1230.66 -339.66 1228.8 -339.66 1226.94 -339.66C1225.08 -339.66 1223.22 -339.66 1221.34 -339.66C1219.47 -339.66 1217.6 -339.66 1215.72 -339.66C1213.84 -339.66 1211.95 -339.66 1210.06 -339.66C1208.18 -339.66 1206.28 -339.66 1204.38 -339.66C1202.48 -339.66 1200.58 -339.66 1198.67 -339.66C1196.77 -339.66 1194.85 -339.66 1192.94 -339.66C1191.02 -339.66 1189.1 -339.66 1187.17 -339.66C1185.24 -339.66 1183.31 -339.66 1181.38 -339.66C1179.44 -339.66 1177.5 -339.66 1175.55 -339.66C1173.61 -339.66 1171.66 -339.66 1169.7 -339.66C1167.75 -339.66 1165.79 -339.66 1163.83 -339.66C1161.86 -339.66 1159.89 -339.66 1157.92 -339.66C1155.94 -339.66 1153.97 -339.66 1151.98 -339.66C1150 -339.66 1148.01 -339.66 1146.02 -339.66C1144.03 -339.66 1142.03 -339.66 1140.03 -339.66C1138.02 -339.66 1136.02 -339.66 1134 -339.66C1131.99 -339.66 1129.98 -339.66 1127.95 -339.66C1125.93 -339.66 1123.91 -339.66 1121.88 -339.66C1119.84 -339.66 1117.81 -339.66 1115.77 -339.66C1113.73 -339.66 1111.68 -339.66 1109.63 -339.66C1107.58 -339.66 1105.53 -339.66 1103.47 -339.66C1101.41 -339.66 1099.34 -339.66 1097.27 -339.66C1095.2 -339.66 1093.13 -339.66 1091.05 -339.66C1088.97 -339.66 1086.88 -339.66 1084.79 -339.66C1082.7 -339.66 1080.61 -339.66 1078.51 -339.66C1076.41 -339.66 1074.31 -339.66 1072.2 -339.66C1070.09 -339.66 1067.98 -339.66 1065.86 -339.66C1063.74 -339.66 1061.62 -339.66 1059.49 -339.66C1057.36 -339.66 1055.23 -339.66 1053.09 -339.66C1050.95 -339.66 1048.81 -339.66 1046.66 -339.66C1044.51 -339.66 1042.36 -339.66 1040.2 -339.66C1038.04 -339.66 1035.88 -339.66 1033.71 -339.66C1031.54 -339.66 1029.37 -339.66 1027.19 -339.66C1025.01 -339.66 1022.83 -339.66 1020.64 -339.66C1018.45 -339.66 1016.26 -339.66 1014.06 -339.66C1011.86 -339.66 1009.66 -339.66 1007.45 -339.66C1005.24 -339.66 1003.03 -339.66 1000.81 -339.66C998.594 -339.66 996.371 -339.66 994.143 -339.66C991.914 -339.66 989.681 -339.66 987.443 -339.66C985.205 -339.66 982.961 -339.66 980.713 -339.66C978.465 -339.66 976.211 -339.66 973.953 -339.66C971.694 -339.66 969.43 -339.66 967.162 -339.66C964.893 -339.66 962.619 -339.66 960.34 -339.66C958.062 -339.66 955.778 -339.66 953.488 -339.66C951.199 -339.66 948.905 -339.66 946.606 -339.66C944.307 -339.66 942.002 -339.66 939.693 -339.66C937.383 -339.66 935.068 -339.66 932.748 -339.66C930.429 -339.66 928.104 -339.66 925.773 -339.66C923.443 -339.66 921.108 -339.66 918.767 -339.66C916.427 -339.66 914.081 -339.66 911.731 -339.66C909.38 -339.66 907.024 -339.66 904.663 -339.66C902.301 -339.66 899.935 -339.66 897.563 -339.66C895.192 -339.66 892.815 -339.66 890.433 -339.66C888.051 -339.66 885.664 -339.66 883.272 -339.66C880.879 -339.66 878.481 -339.66 876.079 -339.66C873.676 -339.66 871.268 -339.66 868.854 -339.66C866.441 -339.66 864.022 -339.66 861.598 -339.66C859.175 -339.66 856.745 -339.66 854.311 -339.66C851.877 -339.66 849.437 -339.66 846.992 -339.66C844.547 -339.66 842.097 -339.66 839.641 -339.66C837.186 -339.66 834.725 -339.66 832.259 -339.66C829.793 -339.66 827.321 -339.66 824.845 -339.66C822.368 -339.66 819.886 -339.66 817.399 -339.66C814.911 -339.66 812.418 -339.66 809.92 -339.66C807.422 -339.66 804.919 -339.66 802.41 -339.66C799.902 -339.66 797.388 -339.66 794.868 -339.66C792.349 -339.66 789.824 -339.66 787.294 -339.66C784.764 -339.66 782.228 -339.66 779.687 -339.66C777.146 -339.66 774.6 -339.66 772.048 -339.66C769.497 -339.66 766.939 -339.66 764.377 -339.66C761.814 -339.66 759.247 -339.66 756.673 -339.66C754.1 -339.66 751.521 -339.66 748.937 -339.66C746.353 -339.66 743.763 -339.66 741.168 -339.66C738.573 -339.66 735.973 -339.66 733.367 -339.66C730.761 -339.66 728.149 -339.66 725.533 -339.66C722.916 -339.66 720.293 -339.66 717.666 -339.66C715.038 -339.66 712.405 -339.66 709.766 -339.66C707.127 -339.66 704.483 -339.66 701.833 -339.66C699.183 -339.66 696.528 -339.66 693.868 -339.66C691.207 -339.66 688.541 -339.66 685.869 -339.66C683.197 -339.66 680.52 -339.66 677.837 -339.66C675.154 -339.66 672.466 -339.66 669.772 -339.66C667.078 -339.66 664.379 -339.66 661.674 -339.66C658.969 -339.66 656.258 -339.66 653.542 -339.66C650.826 -339.66 648.104 -339.66 645.377 -339.66C642.65 -339.66 639.917 -339.66 637.179 -339.66C634.44 -339.66 631.696 -339.66 628.947 -339.66C626.197 -339.66 623.442 -339.66 620.681 -339.66C617.92 -339.66 615.154 -339.66 612.382 -339.66C609.61 -339.66 606.832 -339.66 604.049 -339.66C601.265 -339.66 598.476 -339.66 595.682 -339.66C592.887 -339.66 590.087 -339.66 587.281 -339.66C584.475 -339.66 581.664 -339.66 578.846 -339.66C576.029 -339.66 573.206 -339.66 570.378 -339.66C567.549 -339.66 564.715 -339.66 561.875 -339.66C559.035 -339.66 556.19 -339.66 553.338 -339.66C550.487 -339.66 547.63 -339.66 544.767 -339.66C541.904 -339.66 539.036 -339.66 536.162 -339.66C533.288 -339.66 530.408 -339.66 527.522 -339.66C524.636 -339.66 521.745 -339.66 518.848 -339.66C515.951 -339.66 513.048 -339.66 510.139 -339.66C507.231 -339.66 504.316 -339.66 501.396 -339.66C498.476 -339.66 495.55 -339.66 492.618 -339.66C489.687 -339.66 486.749 -339.66 483.806 -339.66C480.862 -339.66 477.913 -339.66 474.958 -339.66C472.004 -339.66 469.043 -339.66 466.076 -339.66C463.11 -339.66 460.138 -339.66 457.159 -339.66C454.181 -339.66 451.197 -339.66 448.207 -339.66V-337.66C451.197 -337.66 454.181 -337.66 457.159 -337.66C460.138 -337.66 463.11 -337.66 466.076 -337.66C469.043 -337.66 472.004 -337.66 474.958 -337.66C477.913 -337.66 480.862 -337.66 483.806 -337.66C486.749 -337.66 489.687 -337.66 492.618 -337.66C495.55 -337.66 498.476 -337.66 501.396 -337.66C504.316 -337.66 507.231 -337.66 510.139 -337.66C513.048 -337.66 515.951 -337.66 518.848 -337.66C521.745 -337.66 524.636 -337.66 527.522 -337.66C530.408 -337.66 533.288 -337.66 536.162 -337.66C539.036 -337.66 541.904 -337.66 544.767 -337.66C547.63 -337.66 550.487 -337.66 553.338 -337.66C556.19 -337.66 559.035 -337.66 561.875 -337.66C564.715 -337.66 567.549 -337.66 570.378 -337.66C573.206 -337.66 576.029 -337.66 578.846 -337.66C581.664 -337.66 584.475 -337.66 587.281 -337.66C590.087 -337.66 592.887 -337.66 595.682 -337.66C598.476 -337.66 601.265 -337.66 604.049 -337.66C606.832 -337.66 609.61 -337.66 612.382 -337.66C615.154 -337.66 617.92 -337.66 620.681 -337.66C623.442 -337.66 626.197 -337.66 628.947 -337.66C631.696 -337.66 634.44 -337.66 637.179 -337.66C639.917 -337.66 642.65 -337.66 645.377 -337.66C648.104 -337.66 650.826 -337.66 653.542 -337.66C656.258 -337.66 658.969 -337.66 661.674 -337.66C664.379 -337.66 667.078 -337.66 669.772 -337.66C672.466 -337.66 675.154 -337.66 677.837 -337.66C680.52 -337.66 683.197 -337.66 685.869 -337.66C688.541 -337.66 691.207 -337.66 693.868 -337.66C696.528 -337.66 699.183 -337.66 701.833 -337.66C704.483 -337.66 707.127 -337.66 709.766 -337.66C712.405 -337.66 715.038 -337.66 717.666 -337.66C720.293 -337.66 722.916 -337.66 725.533 -337.66C728.149 -337.66 730.761 -337.66 733.367 -337.66C735.973 -337.66 738.573 -337.66 741.168 -337.66C743.763 -337.66 746.353 -337.66 748.937 -337.66C751.521 -337.66 754.1 -337.66 756.673 -337.66C759.247 -337.66 761.814 -337.66 764.377 -337.66C766.939 -337.66 769.497 -337.66 772.048 -337.66C774.6 -337.66 777.146 -337.66 779.687 -337.66C782.228 -337.66 784.764 -337.66 787.294 -337.66C789.824 -337.66 792.349 -337.66 794.868 -337.66C797.388 -337.66 799.902 -337.66 802.41 -337.66C804.919 -337.66 807.422 -337.66 809.92 -337.66C812.418 -337.66 814.911 -337.66 817.399 -337.66C819.886 -337.66 822.368 -337.66 824.845 -337.66C827.321 -337.66 829.793 -337.66 832.259 -337.66C834.725 -337.66 837.186 -337.66 839.641 -337.66C842.097 -337.66 844.547 -337.66 846.992 -337.66C849.437 -337.66 851.877 -337.66 854.311 -337.66C856.745 -337.66 859.175 -337.66 861.598 -337.66C864.022 -337.66 866.441 -337.66 868.854 -337.66C871.268 -337.66 873.676 -337.66 876.079 -337.66C878.481 -337.66 880.879 -337.66 883.272 -337.66C885.664 -337.66 888.051 -337.66 890.433 -337.66C892.815 -337.66 895.192 -337.66 897.563 -337.66C899.935 -337.66 902.301 -337.66 904.663 -337.66C907.024 -337.66 909.38 -337.66 911.731 -337.66C914.081 -337.66 916.427 -337.66 918.767 -337.66C921.108 -337.66 923.443 -337.66 925.773 -337.66C928.104 -337.66 930.429 -337.66 932.748 -337.66C935.068 -337.66 937.383 -337.66 939.693 -337.66C942.002 -337.66 944.307 -337.66 946.606 -337.66C948.905 -337.66 951.199 -337.66 953.488 -337.66C955.778 -337.66 958.062 -337.66 960.34 -337.66C962.619 -337.66 964.893 -337.66 967.162 -337.66C969.43 -337.66 971.694 -337.66 973.953 -337.66C976.211 -337.66 978.465 -337.66 980.713 -337.66C982.961 -337.66 985.205 -337.66 987.443 -337.66C989.681 -337.66 991.914 -337.66 994.143 -337.66C996.371 -337.66 998.594 -337.66 1000.81 -337.66C1003.03 -337.66 1005.24 -337.66 1007.45 -337.66C1009.66 -337.66 1011.86 -337.66 1014.06 -337.66C1016.26 -337.66 1018.45 -337.66 1020.64 -337.66C1022.83 -337.66 1025.01 -337.66 1027.19 -337.66C1029.37 -337.66 1031.54 -337.66 1033.71 -337.66C1035.88 -337.66 1038.04 -337.66 1040.2 -337.66C1042.36 -337.66 1044.51 -337.66 1046.66 -337.66C1048.81 -337.66 1050.95 -337.66 1053.09 -337.66C1055.23 -337.66 1057.36 -337.66 1059.49 -337.66C1061.62 -337.66 1063.74 -337.66 1065.86 -337.66C1067.98 -337.66 1070.09 -337.66 1072.2 -337.66C1074.31 -337.66 1076.41 -337.66 1078.51 -337.66C1080.61 -337.66 1082.7 -337.66 1084.79 -337.66C1086.88 -337.66 1088.97 -337.66 1091.05 -337.66C1093.13 -337.66 1095.2 -337.66 1097.27 -337.66C1099.34 -337.66 1101.41 -337.66 1103.47 -337.66C1105.53 -337.66 1107.58 -337.66 1109.63 -337.66C1111.68 -337.66 1113.73 -337.66 1115.77 -337.66C1117.81 -337.66 1119.84 -337.66 1121.88 -337.66C1123.91 -337.66 1125.93 -337.66 1127.95 -337.66C1129.98 -337.66 1131.99 -337.66 1134 -337.66C1136.02 -337.66 1138.02 -337.66 1140.03 -337.66C1142.03 -337.66 1144.03 -337.66 1146.02 -337.66C1148.01 -337.66 1150 -337.66 1151.98 -337.66C1153.97 -337.66 1155.94 -337.66 1157.92 -337.66C1159.89 -337.66 1161.86 -337.66 1163.83 -337.66C1165.79 -337.66 1167.75 -337.66 1169.7 -337.66C1171.66 -337.66 1173.61 -337.66 1175.55 -337.66C1177.5 -337.66 1179.44 -337.66 1181.38 -337.66C1183.31 -337.66 1185.24 -337.66 1187.17 -337.66C1189.1 -337.66 1191.02 -337.66 1192.94 -337.66C1194.85 -337.66 1196.77 -337.66 1198.67 -337.66C1200.58 -337.66 1202.48 -337.66 1204.38 -337.66C1206.28 -337.66 1208.18 -337.66 1210.06 -337.66C1211.95 -337.66 1213.84 -337.66 1215.72 -337.66C1217.6 -337.66 1219.47 -337.66 1221.34 -337.66C1223.22 -337.66 1225.08 -337.66 1226.94 -337.66C1228.8 -337.66 1230.66 -337.66 1232.51 -337.66C1234.37 -337.66 1236.21 -337.66 1238.06 -337.66C1239.9 -337.66 1241.74 -337.66 1243.57 -337.66C1245.41 -337.66 1247.24 -337.66 1249.06 -337.66C1250.89 -337.66 1252.71 -337.66 1254.52 -337.66C1256.34 -337.66 1258.15 -337.66 1259.96 -337.66C1261.76 -337.66 1263.56 -337.66 1265.36 -337.66C1267.16 -337.66 1268.95 -337.66 1270.74 -337.66C1272.53 -337.66 1274.31 -337.66 1276.09 -337.66C1277.87 -337.66 1279.65 -337.66 1281.42 -337.66C1283.19 -337.66 1284.95 -337.66 1286.72 -337.66C1288.48 -337.66 1290.23 -337.66 1291.99 -337.66C1293.74 -337.66 1295.49 -337.66 1297.23 -337.66C1298.98 -337.66 1300.71 -337.66 1302.45 -337.66C1304.18 -337.66 1305.91 -337.66 1307.64 -337.66C1309.37 -337.66 1311.09 -337.66 1312.8 -337.66C1314.52 -337.66 1316.23 -337.66 1317.94 -337.66C1319.65 -337.66 1321.35 -337.66 1323.05 -337.66C1324.75 -337.66 1326.45 -337.66 1328.14 -337.66C1329.83 -337.66 1331.52 -337.66 1333.2 -337.66C1334.88 -337.66 1336.56 -337.66 1338.23 -337.66C1339.9 -337.66 1341.57 -337.66 1343.23 -337.66C1344.9 -337.66 1346.56 -337.66 1348.21 -337.66C1349.87 -337.66 1351.52 -337.66 1353.17 -337.66C1354.82 -337.66 1356.46 -337.66 1358.1 -337.66C1359.73 -337.66 1361.37 -337.66 1363 -337.66C1364.63 -337.66 1366.25 -337.66 1367.87 -337.66C1369.5 -337.66 1371.11 -337.66 1372.72 -337.66C1374.34 -337.66 1375.94 -337.66 1377.55 -337.66C1379.15 -337.66 1380.75 -337.66 1382.35 -337.66C1383.94 -337.66 1385.53 -337.66 1387.12 -337.66C1388.71 -337.66 1390.29 -337.66 1391.87 -337.66C1393.45 -337.66 1395.02 -337.66 1396.59 -337.66C1398.16 -337.66 1399.73 -337.66 1401.29 -337.66C1402.85 -337.66 1404.41 -337.66 1405.96 -337.66C1407.51 -337.66 1409.06 -337.66 1410.61 -337.66C1412.15 -337.66 1413.69 -337.66 1415.23 -337.66C1416.76 -337.66 1418.29 -337.66 1419.82 -337.66C1421.35 -337.66 1422.87 -337.66 1424.39 -337.66C1425.91 -337.66 1427.43 -337.66 1428.94 -337.66C1430.45 -337.66 1431.96 -337.66 1433.46 -337.66C1434.96 -337.66 1436.46 -337.66 1437.96 -337.66C1439.45 -337.66 1440.94 -337.66 1442.43 -337.66C1443.91 -337.66 1445.4 -337.66 1446.87 -337.66C1448.35 -337.66 1449.83 -337.66 1451.3 -337.66C1452.77 -337.66 1454.23 -337.66 1455.69 -337.66C1457.16 -337.66 1458.61 -337.66 1460.07 -337.66C1461.52 -337.66 1462.97 -337.66 1464.42 -337.66C1465.86 -337.66 1467.3 -337.66 1468.74 -337.66C1470.18 -337.66 1471.61 -337.66 1473.04 -337.66C1474.47 -337.66 1475.89 -337.66 1477.32 -337.66C1478.74 -337.66 1480.15 -337.66 1481.57 -337.66C1482.98 -337.66 1484.39 -337.66 1485.79 -337.66C1487.2 -337.66 1488.6 -337.66 1490 -337.66C1491.4 -337.66 1492.79 -337.66 1494.18 -337.66C1495.57 -337.66 1496.95 -337.66 1498.33 -337.66C1499.71 -337.66 1501.09 -337.66 1502.46 -337.66C1503.84 -337.66 1505.21 -337.66 1506.57 -337.66C1507.94 -337.66 1509.3 -337.66 1510.66 -337.66C1512.01 -337.66 1513.37 -337.66 1514.72 -337.66C1516.07 -337.66 1517.41 -337.66 1518.76 -337.66C1520.1 -337.66 1521.43 -337.66 1522.77 -337.66C1524.1 -337.66 1525.43 -337.66 1526.76 -337.66C1528.09 -337.66 1529.41 -337.66 1530.73 -337.66C1532.04 -337.66 1533.36 -337.66 1534.67 -337.66C1535.98 -337.66 1537.29 -337.66 1538.59 -337.66C1539.89 -337.66 1541.19 -337.66 1542.49 -337.66C1543.78 -337.66 1545.07 -337.66 1546.36 -337.66C1547.65 -337.66 1548.93 -337.66 1550.21 -337.66C1551.49 -337.66 1552.77 -337.66 1554.04 -337.66C1555.31 -337.66 1556.58 -337.66 1557.85 -337.66C1559.11 -337.66 1560.37 -337.66 1561.63 -337.66C1562.89 -337.66 1564.14 -337.66 1565.39 -337.66C1566.64 -337.66 1567.89 -337.66 1569.13 -337.66C1570.37 -337.66 1571.61 -337.66 1572.84 -337.66C1574.08 -337.66 1575.31 -337.66 1576.54 -337.66C1577.76 -337.66 1578.99 -337.66 1580.2 -337.66C1581.42 -337.66 1582.64 -337.66 1583.85 -337.66C1585.06 -337.66 1586.27 -337.66 1587.48 -337.66C1588.68 -337.66 1589.88 -337.66 1591.08 -337.66C1592.28 -337.66 1593.47 -337.66 1594.66 -337.66C1595.85 -337.66 1597.04 -337.66 1598.22 -337.66C1599.4 -337.66 1600.58 -337.66 1601.76 -337.66C1602.93 -337.66 1604.1 -337.66 1605.27 -337.66C1606.44 -337.66 1607.6 -337.66 1608.76 -337.66C1609.92 -337.66 1611.08 -337.66 1612.23 -337.66C1613.39 -337.66 1614.54 -337.66 1615.68 -337.66C1616.83 -337.66 1617.97 -337.66 1619.11 -337.66C1620.25 -337.66 1621.39 -337.66 1622.52 -337.66C1623.65 -337.66 1624.78 -337.66 1625.9 -337.66C1627.03 -337.66 1628.15 -337.66 1629.26 -337.66C1630.38 -337.66 1631.5 -337.66 1632.61 -337.66C1633.72 -337.66 1634.82 -337.66 1635.93 -337.66C1637.03 -337.66 1638.13 -337.66 1639.22 -337.66C1640.32 -337.66 1641.41 -337.66 1642.5 -337.66C1643.59 -337.66 1644.68 -337.66 1645.76 -337.66C1646.84 -337.66 1647.92 -337.66 1648.99 -337.66C1650.07 -337.66 1651.14 -337.66 1652.21 -337.66C1653.28 -337.66 1654.34 -337.66 1655.4 -337.66C1656.46 -337.66 1657.52 -337.66 1658.57 -337.66C1659.63 -337.66 1660.68 -337.66 1661.73 -337.66C1662.77 -337.66 1663.82 -337.66 1664.86 -337.66C1665.9 -337.66 1666.93 -337.66 1667.97 -337.66C1669 -337.66 1670.03 -337.66 1671.06 -337.66C1672.08 -337.66 1673.11 -337.66 1674.13 -337.66C1675.15 -337.66 1676.16 -337.66 1677.17 -337.66C1678.19 -337.66 1679.2 -337.66 1680.2 -337.66C1681.21 -337.66 1682.21 -337.66 1683.21 -337.66C1684.21 -337.66 1685.21 -337.66 1686.2 -337.66C1687.19 -337.66 1688.18 -337.66 1689.17 -337.66C1690.15 -337.66 1691.13 -337.66 1692.11 -337.66C1693.09 -337.66 1694.07 -337.66 1695.04 -337.66C1696.01 -337.66 1696.98 -337.66 1697.95 -337.66C1698.91 -337.66 1699.88 -337.66 1700.84 -337.66C1701.8 -337.66 1702.75 -337.66 1703.7 -337.66C1704.66 -337.66 1705.61 -337.66 1706.55 -337.66C1707.5 -337.66 1708.44 -337.66 1709.38 -337.66C1710.32 -337.66 1711.26 -337.66 1712.19 -337.66C1713.12 -337.66 1714.05 -337.66 1714.98 -337.66C1715.9 -337.66 1716.83 -337.66 1717.75 -337.66C1718.67 -337.66 1719.58 -337.66 1720.5 -337.66C1721.41 -337.66 1722.32 -337.66 1723.23 -337.66C1724.13 -337.66 1725.04 -337.66 1725.94 -337.66C1726.84 -337.66 1727.74 -337.66 1728.63 -337.66C1729.53 -337.66 1730.42 -337.66 1731.3 -337.66C1732.19 -337.66 1733.08 -337.66 1733.96 -337.66C1734.84 -337.66 1735.72 -337.66 1736.59 -337.66C1737.47 -337.66 1738.34 -337.66 1739.21 -337.66C1740.08 -337.66 1740.94 -337.66 1741.81 -337.66C1742.67 -337.66 1743.53 -337.66 1744.38 -337.66C1745.24 -337.66 1746.09 -337.66 1746.94 -337.66C1747.79 -337.66 1748.64 -337.66 1749.48 -337.66C1750.33 -337.66 1751.17 -337.66 1752.01 -337.66C1752.84 -337.66 1753.68 -337.66 1754.51 -337.66C1755.34 -337.66 1756.17 -337.66 1756.99 -337.66C1757.82 -337.66 1758.64 -337.66 1759.46 -337.66C1760.28 -337.66 1761.1 -337.66 1761.91 -337.66C1762.72 -337.66 1763.53 -337.66 1764.34 -337.66C1765.15 -337.66 1765.95 -337.66 1766.75 -337.66C1767.55 -337.66 1768.35 -337.66 1769.15 -337.66C1769.94 -337.66 1770.73 -337.66 1771.52 -337.66C1772.31 -337.66 1773.1 -337.66 1773.88 -337.66C1774.66 -337.66 1775.44 -337.66 1776.22 -337.66C1777 -337.66 1777.77 -337.66 1778.54 -337.66C1779.31 -337.66 1780.08 -337.66 1780.84 -337.66C1781.61 -337.66 1782.37 -337.66 1783.13 -337.66C1783.89 -337.66 1784.65 -337.66 1785.4 -337.66C1786.15 -337.66 1786.9 -337.66 1787.65 -337.66C1788.4 -337.66 1789.14 -337.66 1789.88 -337.66C1790.63 -337.66 1791.36 -337.66 1792.1 -337.66C1792.84 -337.66 1793.57 -337.66 1794.3 -337.66C1795.03 -337.66 1795.76 -337.66 1796.48 -337.66C1797.21 -337.66 1797.93 -337.66 1798.65 -337.66C1799.36 -337.66 1800.08 -337.66 1800.79 -337.66C1801.51 -337.66 1802.21 -337.66 1802.92 -337.66C1803.63 -337.66 1804.33 -337.66 1805.04 -337.66C1805.74 -337.66 1806.44 -337.66 1807.13 -337.66C1807.83 -337.66 1808.52 -337.66 1809.21 -337.66C1809.9 -337.66 1810.59 -337.66 1811.27 -337.66C1811.96 -337.66 1812.64 -337.66 1813.32 -337.66C1814 -337.66 1814.67 -337.66 1815.35 -337.66C1816.02 -337.66 1816.69 -337.66 1817.36 -337.66C1818.03 -337.66 1818.69 -337.66 1819.35 -337.66C1820.02 -337.66 1820.68 -337.66 1821.33 -337.66C1821.99 -337.66 1822.64 -337.66 1823.3 -337.66C1823.95 -337.66 1824.6 -337.66 1825.24 -337.66C1825.89 -337.66 1826.53 -337.66 1827.17 -337.66C1827.81 -337.66 1828.45 -337.66 1829.09 -337.66C1829.72 -337.66 1830.35 -337.66 1830.98 -337.66C1831.61 -337.66 1832.24 -337.66 1832.86 -337.66C1833.49 -337.66 1834.11 -337.66 1834.73 -337.66C1835.35 -337.66 1835.97 -337.66 1836.58 -337.66C1837.19 -337.66 1837.81 -337.66 1838.41 -337.66C1839.02 -337.66 1839.63 -337.66 1840.23 -337.66C1840.84 -337.66 1841.44 -337.66 1842.03 -337.66C1842.63 -337.66 1843.23 -337.66 1843.82 -337.66C1844.41 -337.66 1845 -337.66 1845.59 -337.66C1846.18 -337.66 1846.76 -337.66 1847.35 -337.66C1847.93 -337.66 1848.51 -337.66 1849.09 -337.66C1849.66 -337.66 1850.24 -337.66 1850.81 -337.66C1851.38 -337.66 1851.95 -337.66 1852.52 -337.66C1853.09 -337.66 1853.65 -337.66 1854.21 -337.66C1854.78 -337.66 1855.34 -337.66 1855.89 -337.66C1856.45 -337.66 1857 -337.66 1857.56 -337.66C1858.11 -337.66 1858.66 -337.66 1859.2 -337.66C1859.75 -337.66 1860.3 -337.66 1860.84 -337.66C1861.38 -337.66 1861.92 -337.66 1862.46 -337.66C1862.99 -337.66 1863.53 -337.66 1864.06 -337.66C1864.59 -337.66 1865.12 -337.66 1865.65 -337.66C1866.18 -337.66 1866.7 -337.66 1867.22 -337.66C1867.75 -337.66 1868.27 -337.66 1868.78 -337.66C1869.3 -337.66 1869.82 -337.66 1870.33 -337.66C1870.84 -337.66 1871.35 -337.66 1871.86 -337.66C1872.37 -337.66 1872.87 -337.66 1873.38 -337.66C1873.88 -337.66 1874.38 -337.66 1874.88 -337.66C1875.38 -337.66 1875.87 -337.66 1876.36 -337.66C1876.86 -337.66 1877.35 -337.66 1877.84 -337.66C1878.33 -337.66 1878.81 -337.66 1879.3 -337.66C1879.78 -337.66 1880.26 -337.66 1880.74 -337.66C1881.22 -337.66 1881.7 -337.66 1882.17 -337.66C1882.65 -337.66 1883.12 -337.66 1883.59 -337.66C1884.06 -337.66 1884.53 -337.66 1884.99 -337.66C1885.46 -337.66 1885.92 -337.66 1886.38 -337.66C1886.84 -337.66 1887.3 -337.66 1887.76 -337.66C1888.21 -337.66 1888.67 -337.66 1889.12 -337.66C1889.57 -337.66 1890.02 -337.66 1890.47 -337.66C1890.91 -337.66 1891.36 -337.66 1891.8 -337.66C1892.24 -337.66 1892.69 -337.66 1893.12 -337.66C1893.56 -337.66 1894 -337.66 1894.43 -337.66C1894.86 -337.66 1895.3 -337.66 1895.73 -337.66C1896.15 -337.66 1896.58 -337.66 1897.01 -337.66C1897.43 -337.66 1897.85 -337.66 1898.27 -337.66C1898.69 -337.66 1899.11 -337.66 1899.53 -337.66C1899.95 -337.66 1900.36 -337.66 1900.77 -337.66C1901.18 -337.66 1901.59 -337.66 1902 -337.66C1902.41 -337.66 1902.81 -337.66 1903.22 -337.66C1903.62 -337.66 1904.02 -337.66 1904.42 -337.66C1904.82 -337.66 1905.21 -337.66 1905.61 -337.66C1906 -337.66 1906.4 -337.66 1906.79 -337.66C1907.18 -337.66 1907.56 -337.66 1907.95 -337.66C1908.34 -337.66 1908.72 -337.66 1909.1 -337.66C1909.48 -337.66 1909.86 -337.66 1910.24 -337.66C1910.62 -337.66 1911 -337.66 1911.37 -337.66C1911.74 -337.66 1912.11 -337.66 1912.48 -337.66C1912.85 -337.66 1913.22 -337.66 1913.59 -337.66C1913.95 -337.66 1914.32 -337.66 1914.68 -337.66C1915.04 -337.66 1915.4 -337.66 1915.75 -337.66C1916.11 -337.66 1916.47 -337.66 1916.82 -337.66C1917.17 -337.66 1917.53 -337.66 1917.87 -337.66C1918.22 -337.66 1918.57 -337.66 1918.92 -337.66C1919.26 -337.66 1919.61 -337.66 1919.95 -337.66C1920.29 -337.66 1920.63 -337.66 1920.96 -337.66C1921.3 -337.66 1921.64 -337.66 1921.97 -337.66C1922.3 -337.66 1922.64 -337.66 1922.97 -337.66C1923.3 -337.66 1923.62 -337.66 1923.95 -337.66C1924.27 -337.66 1924.6 -337.66 1924.92 -337.66C1925.24 -337.66 1925.56 -337.66 1925.88 -337.66C1926.2 -337.66 1926.51 -337.66 1926.83 -337.66C1927.14 -337.66 1927.46 -337.66 1927.77 -337.66C1928.08 -337.66 1928.39 -337.66 1928.69 -337.66C1929 -337.66 1929.3 -337.66 1929.61 -337.66C1929.91 -337.66 1930.21 -337.66 1930.51 -337.66C1930.81 -337.66 1931.11 -337.66 1931.4 -337.66C1931.7 -337.66 1931.99 -337.66 1932.28 -337.66C1932.58 -337.66 1932.87 -337.66 1933.15 -337.66C1933.44 -337.66 1933.73 -337.66 1934.01 -337.66C1934.3 -337.66 1934.58 -337.66 1934.86 -337.66C1935.14 -337.66 1935.42 -337.66 1935.7 -337.66C1935.98 -337.66 1936.25 -337.66 1936.53 -337.66C1936.8 -337.66 1937.07 -337.66 1937.34 -337.66C1937.62 -337.66 1937.88 -337.66 1938.15 -337.66C1938.42 -337.66 1938.68 -337.66 1938.95 -337.66C1939.21 -337.66 1939.47 -337.66 1939.73 -337.66C1939.99 -337.66 1940.25 -337.66 1940.51 -337.66C1940.76 -337.66 1941.02 -337.66 1941.27 -337.66C1941.53 -337.66 1941.78 -337.66 1942.03 -337.66C1942.28 -337.66 1942.52 -337.66 1942.77 -337.66C1943.02 -337.66 1943.26 -337.66 1943.51 -337.66C1943.75 -337.66 1943.99 -337.66 1944.23 -337.66C1944.47 -337.66 1944.71 -337.66 1944.94 -337.66C1945.18 -337.66 1945.42 -337.66 1945.65 -337.66C1945.88 -337.66 1946.11 -337.66 1946.34 -337.66C1946.57 -337.66 1946.8 -337.66 1947.03 -337.66C1947.26 -337.66 1947.48 -337.66 1947.7 -337.66C1947.93 -337.66 1948.15 -337.66 1948.37 -337.66C1948.59 -337.66 1948.81 -337.66 1949.03 -337.66C1949.24 -337.66 1949.46 -337.66 1949.67 -337.66C1949.89 -337.66 1950.1 -337.66 1950.31 -337.66C1950.52 -337.66 1950.73 -337.66 1950.94 -337.66C1951.15 -337.66 1951.35 -337.66 1951.56 -337.66C1951.76 -337.66 1951.97 -337.66 1952.17 -337.66C1952.37 -337.66 1952.57 -337.66 1952.77 -337.66C1952.97 -337.66 1953.16 -337.66 1953.36 -337.66C1953.56 -337.66 1953.75 -337.66 1953.94 -337.66C1954.14 -337.66 1954.33 -337.66 1954.52 -337.66C1954.71 -337.66 1954.89 -337.66 1955.08 -337.66C1955.27 -337.66 1955.45 -337.66 1955.64 -337.66C1955.82 -337.66 1956 -337.66 1956.19 -337.66C1956.37 -337.66 1956.55 -337.66 1956.72 -337.66C1956.9 -337.66 1957.08 -337.66 1957.25 -337.66C1957.43 -337.66 1957.6 -337.66 1957.78 -337.66C1957.95 -337.66 1958.12 -337.66 1958.29 -337.66C1958.46 -337.66 1958.63 -337.66 1958.79 -337.66C1958.96 -337.66 1959.13 -337.66 1959.29 -337.66C1959.46 -337.66 1959.62 -337.66 1959.78 -337.66C1959.94 -337.66 1960.1 -337.66 1960.26 -337.66C1960.42 -337.66 1960.58 -337.66 1960.73 -337.66C1960.89 -337.66 1961.04 -337.66 1961.2 -337.66C1961.35 -337.66 1961.5 -337.66 1961.65 -337.66C1961.8 -337.66 1961.95 -337.66 1962.1 -337.66C1962.25 -337.66 1962.4 -337.66 1962.54 -337.66C1962.69 -337.66 1962.83 -337.66 1962.98 -337.66C1963.12 -337.66 1963.26 -337.66 1963.4 -337.66C1963.54 -337.66 1963.68 -337.66 1963.82 -337.66C1963.96 -337.66 1964.09 -337.66 1964.23 -337.66C1964.37 -337.66 1964.5 -337.66 1964.63 -337.66C1964.77 -337.66 1964.9 -337.66 1965.03 -337.66C1965.16 -337.66 1965.29 -337.66 1965.42 -337.66C1965.54 -337.66 1965.67 -337.66 1965.8 -337.66C1965.92 -337.66 1966.05 -337.66 1966.17 -337.66C1966.29 -337.66 1966.42 -337.66 1966.54 -337.66C1966.66 -337.66 1966.78 -337.66 1966.9 -337.66C1967.02 -337.66 1967.13 -337.66 1967.25 -337.66C1967.37 -337.66 1967.48 -337.66 1967.59 -337.66C1967.71 -337.66 1967.82 -337.66 1967.93 -337.66C1968.05 -337.66 1968.16 -337.66 1968.27 -337.66C1968.37 -337.66 1968.48 -337.66 1968.59 -337.66C1968.7 -337.66 1968.8 -337.66 1968.91 -337.66C1969.01 -337.66 1969.12 -337.66 1969.22 -337.66C1969.32 -337.66 1969.43 -337.66 1969.53 -337.66C1969.63 -337.66 1969.73 -337.66 1969.83 -337.66C1969.92 -337.66 1970.02 -337.66 1970.12 -337.66C1970.22 -337.66 1970.31 -337.66 1970.41 -337.66C1970.5 -337.66 1970.59 -337.66 1970.69 -337.66C1970.78 -337.66 1970.87 -337.66 1970.96 -337.66C1971.05 -337.66 1971.14 -337.66 1971.23 -337.66C1971.32 -337.66 1971.4 -337.66 1971.49 -337.66C1971.58 -337.66 1971.66 -337.66 1971.75 -337.66C1971.83 -337.66 1971.91 -337.66 1972 -337.66C1972.08 -337.66 1972.16 -337.66 1972.24 -337.66C1972.32 -337.66 1972.4 -337.66 1972.48 -337.66C1972.56 -337.66 1972.63 -337.66 1972.71 -337.66C1972.79 -337.66 1972.86 -337.66 1972.94 -337.66C1973.01 -337.66 1973.09 -337.66 1973.16 -337.66C1973.23 -337.66 1973.31 -337.66 1973.38 -337.66C1973.45 -337.66 1973.52 -337.66 1973.59 -337.66C1973.66 -337.66 1973.73 -337.66 1973.79 -337.66C1973.86 -337.66 1973.93 -337.66 1973.99 -337.66C1974.06 -337.66 1974.12 -337.66 1974.19 -337.66C1974.25 -337.66 1974.32 -337.66 1974.38 -337.66C1974.44 -337.66 1974.5 -337.66 1974.56 -337.66C1974.62 -337.66 1974.68 -337.66 1974.74 -337.66C1974.8 -337.66 1974.86 -337.66 1974.92 -337.66C1974.98 -337.66 1975.03 -337.66 1975.09 -337.66C1975.14 -337.66 1975.2 -337.66 1975.25 -337.66C1975.31 -337.66 1975.36 -337.66 1975.41 -337.66C1975.47 -337.66 1975.52 -337.66 1975.57 -337.66C1975.62 -337.66 1975.67 -337.66 1975.72 -337.66C1975.77 -337.66 1975.82 -337.66 1975.87 -337.66C1975.92 -337.66 1975.96 -337.66 1976.01 -337.66C1976.06 -337.66 1976.1 -337.66 1976.15 -337.66C1976.19 -337.66 1976.24 -337.66 1976.28 -337.66C1976.33 -337.66 1976.37 -337.66 1976.41 -337.66C1976.45 -337.66 1976.5 -337.66 1976.54 -337.66C1976.58 -337.66 1976.62 -337.66 1976.66 -337.66C1976.7 -337.66 1976.74 -337.66 1976.77 -337.66C1976.81 -337.66 1976.85 -337.66 1976.89 -337.66C1976.92 -337.66 1976.96 -337.66 1977 -337.66C1977.03 -337.66 1977.07 -337.66 1977.1 -337.66C1977.14 -337.66 1977.17 -337.66 1977.2 -337.66C1977.24 -337.66 1977.27 -337.66 1977.3 -337.66C1977.33 -337.66 1977.37 -337.66 1977.4 -337.66C1977.43 -337.66 1977.46 -337.66 1977.49 -337.66C1977.52 -337.66 1977.55 -337.66 1977.57 -337.66C1977.6 -337.66 1977.63 -337.66 1977.66 -337.66C1977.69 -337.66 1977.71 -337.66 1977.74 -337.66C1977.76 -337.66 1977.79 -337.66 1977.82 -337.66C1977.84 -337.66 1977.87 -337.66 1977.89 -337.66C1977.91 -337.66 1977.94 -337.66 1977.96 -337.66C1977.98 -337.66 1978.01 -337.66 1978.03 -337.66C1978.05 -337.66 1978.07 -337.66 1978.09 -337.66C1978.11 -337.66 1978.13 -337.66 1978.16 -337.66C1978.18 -337.66 1978.19 -337.66 1978.21 -337.66C1978.23 -337.66 1978.25 -337.66 1978.27 -337.66C1978.29 -337.66 1978.31 -337.66 1978.32 -337.66C1978.34 -337.66 1978.36 -337.66 1978.37 -337.66C1978.39 -337.66 1978.41 -337.66 1978.42 -337.66C1978.44 -337.66 1978.45 -337.66 1978.47 -337.66C1978.48 -337.66 1978.5 -337.66 1978.51 -337.66C1978.52 -337.66 1978.54 -337.66 1978.55 -337.66C1978.56 -337.66 1978.58 -337.66 1978.59 -337.66C1978.6 -337.66 1978.61 -337.66 1978.63 -337.66C1978.64 -337.66 1978.65 -337.66 1978.66 -337.66C1978.67 -337.66 1978.68 -337.66 1978.69 -337.66C1978.7 -337.66 1978.71 -337.66 1978.72 -337.66C1978.73 -337.66 1978.74 -337.66 1978.75 -337.66C1978.76 -337.66 1978.77 -337.66 1978.78 -337.66C1978.78 -337.66 1978.79 -337.66 1978.8 -337.66C1978.81 -337.66 1978.81 -337.66 1978.82 -337.66C1978.83 -337.66 1978.84 -337.66 1978.84 -337.66C1978.85 -337.66 1978.86 -337.66 1978.86 -337.66C1978.87 -337.66 1978.87 -337.66 1978.88 -337.66C1978.88 -337.66 1978.89 -337.66 1978.89 -337.66C1978.9 -337.66 1978.9 -337.66 1978.91 -337.66C1978.91 -337.66 1978.92 -337.66 1978.92 -337.66C1978.93 -337.66 1978.93 -337.66 1978.93 -337.66C1978.94 -337.66 1978.94 -337.66 1978.94 -337.66C1978.95 -337.66 1978.95 -337.66 1978.95 -337.66C1978.96 -337.66 1978.96 -337.66 1978.96 -337.66C1978.96 -337.66 1978.97 -337.66 1978.97 -337.66C1978.97 -337.66 1978.97 -337.66 1978.97 -337.66C1978.98 -337.66 1978.98 -337.66 1978.98 -337.66C1978.98 -337.66 1978.98 -337.66 1978.98 -337.66C1978.99 -337.66 1978.99 -337.66 1978.99 -337.66C1978.99 -337.66 1978.99 -337.66 1978.99 -337.66C1978.99 -337.66 1978.99 -337.66 1978.99 -337.66C1978.99 -337.66 1979 -337.66 1979 -337.66C1979 -337.66 1979 -337.66 1979 -337.66C1979 -337.66 1979 -337.66 1979 -337.66C1979 -337.66 1979 -337.66 1979 -337.66C1979 -337.66 1979 -337.66 1979 -337.66C1979 -337.66 1979 -337.66 1979 -337.66H1979C1979 -337.66 1979 -337.66 1979 -338.66ZM448.207 -339.66C154.528 -339.66 -5.84072 -209.519 -48.3919 -56.7425C-90.9284 95.9813 -15.578 270.885 161.261 360.013L162.161 358.227C-13.9279 269.477 -88.7158 95.4913 -46.4653 -56.2058C-4.22956 -207.85 155.114 -337.66 448.207 -337.66V-339.66ZM161.261 360.013C228.762 393.999 300.203 424.106 365.425 461.333C430.602 498.535 489.379 542.753 531.395 604.801C615.387 728.839 632.648 924.546 498.894 1278.99L500.766 1279.69C634.587 925.071 617.604 728.547 533.051 603.68C490.794 541.275 431.723 496.872 366.416 459.596C301.154 422.346 229.476 392.119 162.16 358.226L161.261 360.013ZM500.568 1280.01L1979.74 -337.986L1978.26 -339.335L499.092 1278.66L500.568 1280.01ZM1464.09 -118.964L797.724 608.901L799.199 610.251L1465.57 -117.614L1464.09 -118.964ZM799.398 609.227C791.36 587.636 782.077 566.45 771.588 545.758L769.804 546.662C780.259 567.288 789.512 588.405 797.524 609.925L799.398 609.227ZM771.584 545.751C671.66 352.493 491.177 267.383 346.623 199.142L345.769 200.95C490.384 269.22 670.234 354.089 769.808 546.669L771.584 545.751ZM346.632 199.146C322.548 187.478 299.54 176.773 277.953 165.872L277.052 167.657C298.656 178.568 321.717 189.298 345.76 200.946L346.632 199.146ZM277.953 165.872C194.428 123.76 171.864 49.3905 186.326 -2.19257L184.4 -2.73248C169.657 49.8532 192.752 125.155 277.052 167.658L277.953 165.872ZM186.321 -2.17673C194.985 -31.2295 215.2 -56.3067 243.041 -72.4854L242.036 -74.2146C213.784 -57.7971 193.224 -32.3204 184.404 -2.74832L186.321 -2.17673ZM243.072 -72.5042C289.943 -102.07 360.476 -117.665 448.207 -117.665V-119.665C360.297 -119.665 289.33 -104.048 242.005 -74.1958L243.072 -72.5042ZM448.207 -117.665H1464.42V-119.665H448.207V-117.665Z" fill="white" mask="url(#path-1-inside-1_95_867)"/>
</g>
</svg>
