<?xml version="1.0" standalone="no"?>
<!DOCTYPE svg PUBLIC "-//W3C//DTD SVG 20010904//EN"
 "http://www.w3.org/TR/2001/REC-SVG-20010904/DTD/svg10.dtd">
<svg version="1.0" xmlns="http://www.w3.org/2000/svg"
 width="512.000000pt" height="512.000000pt" viewBox="0 0 512.000000 512.000000"
 preserveAspectRatio="xMidYMid meet">
<metadata>
Created by potrace 1.14, written by Peter Selinger 2001-2017
</metadata>
<g transform="translate(0.000000,512.000000) scale(0.100000,-0.100000)"
fill="#000000" stroke="none">
<path d="M396 5104 c-86 -21 -173 -71 -241 -139 -69 -69 -111 -142 -137 -235
-16 -61 -17 -184 -18 -2165 0 -1837 2 -2108 15 -2164 40 -169 159 -301 337
-374 l53 -22 2125 -2 c1325 -1 2144 1 2175 7 136 26 292 144 355 269 63 127
60 -18 60 2277 0 1357 -3 2110 -10 2145 -35 191 -205 364 -397 404 -101 22
-4228 21 -4317 -1z"/>
</g>
</svg>
